<svg version="1.1" xmlns="http://www.w3.org/2000/svg" viewBox="-307.2 -943.104052734375 6712.32041015625 3214.592233276367"><desc>Created with Snap</desc><defs></defs><g><g transform="matrix(24.804,0,0,24.804,1808.7601,-69.64)"><path style="" d="M 18 50 L 18 82 L 50 82 L 50 50 L 18 50 z M 34 54.158203 A 4 4 0 0 1 38 58.158203 A 4 4 0 0 1 34 62.158203 A 4 4 0 0 1 30 58.158203 A 4 4 0 0 1 34 54.158203 z M 32.255859 63.09375 C 32.81526 63.320559 33.405232 63.437028 34 63.439453 C 34.594768 63.436953 35.184739 63.320559 35.744141 63.09375 C 37.449411 66.555603 39.156572 70.015604 40.863281 73.476562 L 27.136719 73.476562 C 28.843826 70.01585 30.550148 66.555329 32.255859 63.09375 z M 26 74.414062 L 42 74.414062 L 42 77.841797 L 26 77.841797 L 26 74.414062 z " fill="#195190" fill-opacity="1" stroke="none"></path><path style="" d="M 50 18 L 50 50 L 82 50 L 82 18 L 50 18 z M 66 22.158203 A 4 4 0 0 1 70 26.158203 A 4 4 0 0 1 66 30.158203 A 4 4 0 0 1 62 26.158203 A 4 4 0 0 1 66 22.158203 z M 64.255859 31.09375 C 64.815261 31.320559 65.405232 31.438906 66 31.441406 C 66.594768 31.438981 67.18474 31.320559 67.744141 31.09375 C 69.449852 34.555329 71.156174 38.01585 72.863281 41.476562 L 59.136719 41.476562 C 60.843428 38.015605 62.550589 34.555603 64.255859 31.09375 z M 58 42.414062 L 74 42.414062 L 74 45.841797 L 58 45.841797 L 58 42.414062 z " fill="#195190" fill-opacity="1" stroke="none"></path><circle style="" cx="34.000175" cy="26.158152" r="4" fill="#195190" fill-opacity="1" stroke="none"></circle><path style="" d="m 32.256035,31.094027 c -1.70527,3.461853 -3.412431,6.922531 -5.11914,10.38349 4.575521,0 9.151041,0 13.726562,0 -1.707107,-3.460712 -3.41343,-6.921911 -5.119141,-10.38349 -0.559401,0.226809 -1.149372,0.343984 -1.74414,0.346409 -0.594768,-0.0025 -1.184739,-0.1196 -1.744141,-0.346409 z" fill="#195190" fill-opacity="1" stroke="none"></path><rect style="" width="16" height="3.4285715" x="26.000175" y="42.413391" fill="#195190" fill-opacity="1" stroke="none"></rect><circle r="4" cy="58.158035" cx="-65.999825" style="" transform="scale(-1,1)" fill="#195190" fill-opacity="1" stroke="none"></circle><path d="m 67.743966,63.093912 c 1.70527,3.461853 3.412431,6.922531 5.11914,10.38349 -4.575521,0 -9.151041,0 -13.726562,0 1.707107,-3.460712 3.41343,-6.921911 5.119141,-10.38349 0.559401,0.226809 1.149372,0.343984 1.74414,0.346409 0.594768,-0.0025 1.184739,-0.1196 1.744141,-0.346409 z" style="" fill="#195190" fill-opacity="1" stroke="none"></path><rect y="74.413277" x="-73.999825" height="3.4285715" width="16" style="" transform="scale(-1,1)" fill="#195190" fill-opacity="1" stroke="none"></rect><desc>Created with Snap</desc><defs></defs></g><g><g transform="matrix(1.024,0,0,-1.024,0,0)"><path d="M255 26Q309 26 350 64Q392 102 392 151Q392 201 361 243Q327 226 294 226Q217 226 217 274Q217 288 236 299Q255 311 290 311Q326 311 368 290Q408 333 408 387Q408 454 349 493Q291 533 224 533Q210 533 203 532Q202 503 198 439Q192 343 192 146Q192 70 181 70Q138 70 126 82Q114 94 114 151Q114 165 119 266Q125 367 125 429Q125 491 129 520Q76 502 72 462Q68 429 57 416Q47 403 29 403Q12 403 6 412Q0 422 0 432Q0 519 135 552Q152 620 189 620Q204 620 204 564Q230 567 268 567Q307 567 357 552Q407 538 444 501Q481 465 481 420Q481 336 400 269Q456 225 456 164Q456 103 418 63Q347 -10 228 -10Q147 -10 112 1Q105 3 97 11Q90 20 90 33Q90 54 131 54Q144 54 188 40Q232 26 255 26ZM340 265Q310 290 283 290Q257 290 257 279Q257 256 306 256Q324 256 340 265ZM819 217Q859 230 874 239Q890 249 898 254L910 261Q915 264 918 264Q926 264 926 255Q926 246 895 223Q864 201 818 183Q811 99 765 47Q719 -5 634 -5Q572 -5 539 44Q506 94 506 160Q506 227 545 286Q585 345 647 345Q675 365 713 365Q752 365 785 324Q818 283 819 217ZM754 166L718 164Q672 164 640 191Q608 219 608 252Q608 285 619 309Q576 275 576 175Q576 127 596 83Q616 40 659 40Q702 40 726 76Q750 113 754 166ZM692 332Q676 332 667 317Q658 303 658 286Q658 249 683 226Q709 203 743 203L755 203Q753 252 738 292Q724 332 692 332ZM1151 -5Q1112 -5 1092 11Q1085 18 1085 46Q1085 75 1087 123Q1061 58 1035 26Q1010 -5 970 -5Q930 -5 900 32Q870 70 870 150Q870 231 915 293Q961 355 1035 355Q1067 355 1107 313Q1115 324 1135 339Q1156 355 1170 355Q1185 355 1185 317Q1185 307 1179 278Q1174 249 1167 236Q1158 213 1158 73Q1158 46 1164 46Q1181 47 1211 88Q1241 130 1270 195Q1300 260 1306 260Q1313 260 1313 252Q1313 224 1284 163Q1205 -5 1151 -5ZM1029 315Q1001 315 969 273Q938 232 938 176Q938 120 954 84Q971 48 998 48Q1031 48 1095 213Q1096 221 1097 240Q1099 260 1100 270Q1091 286 1068 300Q1046 315 1029 315ZM1340 261L1395 267Q1403 267 1409 258Q1415 249 1415 239Q1415 229 1408 171Q1402 113 1402 79Q1402 46 1408 46Q1425 47 1455 88Q1485 130 1514 195Q1544 260 1550 260Q1557 260 1557 252Q1557 224 1528 163Q1449 -5 1395 -5Q1356 -5 1336 11Q1329 18 1329 98Q1329 178 1346 235Q1288 235 1265 272Q1253 291 1253 315Q1253 339 1263 357Q1273 375 1291 375Q1310 375 1325 355Q1341 336 1341 312Q1341 288 1327 264Q1331 261 1340 261ZM1793 -5Q1759 -5 1740 10Q1732 18 1732 52Q1732 86 1735 141Q1708 69 1680 32Q1652 -5 1609 -5Q1567 -5 1537 32Q1508 69 1508 150Q1508 231 1553 293Q1599 355 1673 355Q1709 355 1748 327Q1764 522 1777 547Q1783 558 1805 579Q1828 600 1843 600Q1858 600 1858 553Q1858 498 1848 458Q1821 355 1814 327Q1800 219 1800 73Q1800 46 1806 46Q1824 47 1854 88Q1884 129 1913 194Q1943 260 1949 260Q1956 260 1956 252Q1956 224 1927 163Q1848 -5 1793 -5ZM1667 319Q1640 319 1613 276Q1586 233 1586 176Q1586 120 1600 84Q1615 48 1637 48Q1682 48 1740 228Q1745 283 1745 293Q1716 319 1667 319ZM2389 214Q2420 223 2454 244Q2488 266 2497 266Q2506 266 2506 254Q2506 243 2492 233Q2441 197 2386 178Q2365 81 2292 33Q2219 -15 2125 -15Q2065 -15 2019 6Q1974 27 1950 60Q1902 125 1902 197Q1902 290 1930 365Q1959 441 2005 486Q2051 532 2104 556Q2158 580 2213 580Q2268 580 2314 544Q2360 509 2360 463Q2360 448 2348 438Q2337 428 2321 428Q2298 428 2289 460Q2267 537 2184 537Q2114 537 2048 450Q1983 363 1983 244Q1983 160 2033 98Q2084 36 2160 36Q2221 36 2264 71Q2307 106 2319 161Q2294 156 2258 156Q2222 156 2195 173Q2169 190 2169 219Q2169 249 2199 270Q2230 291 2277 291Q2324 291 2356 272Q2389 253 2389 214ZM2274 257Q2229 257 2229 237Q2229 222 2247 212Q2265 202 2284 202Q2304 202 2324 204Q2323 228 2308 242Q2293 257 2274 257ZM2734 -5Q2695 -5 2675 11Q2668 18 2668 46Q2668 75 2670 123Q2644 58 2618 26Q2593 -5 2553 -5Q2513 -5 2483 32Q2453 70 2453 150Q2453 231 2498 293Q2544 355 2618 355Q2650 355 2690 313Q2698 324 2718 339Q2739 355 2753 355Q2768 355 2768 317Q2768 307 2762 278Q2757 249 2750 236Q2741 213 2741 73Q2741 46 2747 46Q2764 47 2794 88Q2824 130 2853 195Q2883 260 2889 260Q2896 260 2896 252Q2896 224 2867 163Q2788 -5 2734 -5ZM2612 315Q2584 315 2552 273Q2521 232 2521 176Q2521 120 2537 84Q2554 48 2581 48Q2614 48 2678 213Q2679 221 2680 240Q2682 260 2683 270Q2674 286 2651 300Q2629 315 2612 315ZM2919 54L2920 23Q2920 -5 2904 -5Q2880 -5 2858 1Q2836 8 2836 19Q2836 31 2841 98Q2847 166 2847 200L2847 259Q2847 307 2857 317Q2867 327 2892 346Q2918 365 2929 365Q2941 365 2944 361Q2947 357 2947 346Q2947 293 2927 246Q2922 189 2922 167Q2975 266 2996 297Q3033 355 3063 355Q3082 355 3098 340Q3115 325 3115 303Q3115 281 3114 261Q3114 242 3113 231Q3112 220 3112 217Q3116 225 3146 262Q3176 299 3186 310Q3197 321 3209 332Q3232 355 3250 355Q3269 355 3285 341Q3302 327 3302 306Q3302 262 3292 176Q3283 91 3283 68Q3283 46 3289 46Q3306 47 3336 88Q3366 130 3395 195Q3425 260 3431 260Q3438 260 3438 252Q3438 224 3409 163Q3330 -5 3276 -5Q3242 -5 3222 11Q3215 18 3215 47Q3215 77 3220 143Q3226 210 3226 243Q3226 276 3215 276Q3202 276 3158 232Q3115 188 3112 170Q3106 136 3106 23Q3106 -5 3091 -5Q3068 -5 3047 1Q3027 8 3027 19Q3027 31 3033 118Q3039 205 3039 240Q3039 276 3027 276Q3016 276 2972 207Q2928 139 2923 112Q2919 85 2919 54ZM3500 -5Q3444 -5 3411 37Q3378 80 3378 134Q3378 243 3424 299Q3470 355 3543 355Q3577 355 3599 336Q3621 318 3621 286Q3621 226 3570 185Q3520 145 3447 143Q3451 104 3473 75Q3496 47 3526 47Q3556 47 3580 61Q3604 75 3624 101Q3666 156 3696 226Q3704 244 3708 252Q3713 260 3718 260Q3724 260 3724 252Q3724 202 3663 102Q3597 -5 3500 -5ZM3447 167Q3506 177 3533 205Q3561 233 3561 278Q3561 323 3532 323Q3497 323 3473 274Q3449 226 3447 167ZM3978 326L3978 496Q3959 500 3923 508Q3887 517 3868 521Q3811 533 3778 533Q3715 533 3715 498Q3715 459 3741 432Q3768 405 3789 405Q3810 405 3826 416Q3843 427 3856 427Q3873 427 3873 409Q3873 392 3857 381Q3842 370 3809 370Q3756 370 3719 416Q3682 462 3682 510Q3682 558 3704 582Q3726 606 3759 606Q3835 606 3985 558Q3997 621 4030 621Q4045 621 4045 539Q4142 509 4212 509Q4257 509 4291 538Q4301 546 4308 546Q4316 546 4316 539Q4316 512 4276 490Q4236 469 4180 469Q4124 469 4045 483Q4047 345 4047 293Q4047 241 4043 204Q4040 167 4028 126Q4016 86 3996 58Q3977 31 3942 13Q3908 -5 3862 -5Q3817 -5 3780 16Q3744 37 3744 81Q3744 108 3758 125Q3772 143 3795 143Q3819 143 3819 132Q3819 127 3813 112Q3807 98 3807 83Q3807 69 3825 52Q3844 35 3879 35Q3978 35 3978 326ZM4178 261L4233 267Q4241 267 4247 258Q4253 249 4253 239Q4253 229 4246 171Q4240 113 4240 79Q4240 46 4246 46Q4263 47 4293 88Q4323 130 4352 195Q4382 260 4388 260Q4395 260 4395 252Q4395 224 4366 163Q4287 -5 4233 -5Q4194 -5 4174 11Q4167 18 4167 98Q4167 178 4184 235Q4126 235 4103 272Q4091 291 4091 315Q4091 339 4101 357Q4111 375 4129 375Q4148 375 4163 355Q4179 336 4179 312Q4179 288 4165 264Q4169 261 4178 261ZM4627 -5Q4588 -5 4568 11Q4561 18 4561 46Q4561 75 4563 123Q4537 58 4511 26Q4486 -5 4446 -5Q4406 -5 4376 32Q4346 70 4346 150Q4346 231 4391 293Q4437 355 4511 355Q4543 355 4583 313Q4591 324 4611 339Q4632 355 4646 355Q4661 355 4661 317Q4661 307 4655 278Q4650 249 4643 236Q4634 213 4634 73Q4634 46 4640 46Q4657 47 4687 88Q4717 130 4746 195Q4776 260 4782 260Q4789 260 4789 252Q4789 224 4760 163Q4681 -5 4627 -5ZM4505 315Q4477 315 4445 273Q4414 232 4414 176Q4414 120 4430 84Q4447 48 4474 48Q4507 48 4571 213Q4572 221 4573 240Q4575 260 4576 270Q4567 286 4544 300Q4522 315 4505 315ZM4908 243L4916 294Q4916 305 4909 314Q4902 323 4891 323Q4854 323 4827 267Q4800 212 4800 161Q4800 110 4821 78Q4842 47 4872 47Q4903 47 4927 61Q4951 75 4971 101Q5013 156 5043 226Q5051 244 5055 252Q5060 260 5065 260Q5071 260 5071 252Q5071 219 5048 173Q5025 127 5009 102Q4994 78 4970 51Q4920 -5 4845 -5Q4788 -5 4758 35Q4729 76 4729 122Q4729 236 4778 295Q4828 355 4904 355Q4936 355 4954 338Q4973 322 4973 301Q4973 262 4959 243Q4945 224 4925 224Q4908 224 4908 243ZM5337 -35L5364 -32Q5372 -32 5372 -40Q5372 -54 5353 -61Q5334 -68 5310 -68Q5265 -68 5234 -32Q5204 4 5150 101Q5137 122 5137 133Q5137 148 5179 168Q5247 203 5247 256Q5247 271 5236 281Q5226 292 5209 292Q5185 292 5152 235Q5119 179 5107 129Q5096 80 5096 23Q5096 -5 5080 -5Q5057 -5 5036 1Q5015 8 5015 18Q5015 29 5023 113Q5031 198 5032 235Q5036 439 5056 547Q5059 556 5083 578Q5108 600 5123 600Q5138 600 5137 562Q5137 525 5121 402Q5105 279 5101 177Q5119 241 5158 298Q5198 355 5238 355Q5306 355 5306 289Q5306 245 5280 209Q5254 174 5210 152Q5201 148 5201 143Q5201 138 5204 133Q5267 22 5311 -23Q5323 -35 5337 -35ZM5480 -5Q5424 -5 5391 37Q5358 80 5358 134Q5358 243 5404 299Q5450 355 5523 355Q5557 355 5579 336Q5601 318 5601 286Q5601 226 5550 185Q5500 145 5427 143Q5431 104 5453 75Q5476 47 5506 47Q5536 47 5560 61Q5584 75 5604 101Q5646 156 5676 226Q5684 244 5688 252Q5693 260 5698 260Q5704 260 5704 252Q5704 202 5643 102Q5577 -5 5480 -5ZM5427 167Q5486 177 5513 205Q5541 233 5541 278Q5541 323 5512 323Q5477 323 5453 274Q5429 226 5427 167ZM5738 261L5793 267Q5801 267 5807 258Q5813 249 5813 239Q5813 229 5806 171Q5800 113 5800 79Q5800 46 5806 46Q5823 47 5853 88Q5883 130 5912 195Q5942 260 5948 260Q5955 260 5955 252Q5955 224 5926 163Q5847 -5 5793 -5Q5754 -5 5734 11Q5727 18 5727 98Q5727 178 5744 235Q5686 235 5663 272Q5651 291 5651 315Q5651 339 5661 357Q5671 375 5689 375Q5708 375 5723 355Q5739 336 5739 312Q5739 288 5725 264Q5729 261 5738 261Z" fill="#195190" style=""></path></g></g></g></svg>